<svg version="1.1" id="Layer_1" xmlns="http://www.w3.org/2000/svg" xmlns:xlink="http://www.w3.org/1999/xlink" x="0px" y="0px"
	 width="100%" viewBox="0 0 449 158" enable-background="new 0 0 449 158" xml:space="preserve">
<path fill="#FE4A47" opacity="1.000000" stroke="none" 
	d="
M3.000000,1.000000 
	C151.891510,1.000000 300.783020,1.000000 450.000000,1.000000 
	C450.000000,52.020432 450.000000,103.041557 449.583923,154.425751 
	C447.101379,155.188782 445.037506,155.921036 442.968140,155.936844 
	C423.981873,156.081909 404.994690,156.102692 385.543732,156.095184 
	C379.381287,156.073883 373.682892,156.117111 367.520874,156.094666 
	C295.529297,156.017441 224.001328,156.005325 152.473358,156.001251 
	C151.644867,156.001205 150.816376,156.105011 149.524521,156.095428 
	C141.366272,156.073883 133.671387,156.117249 125.513420,156.094788 
	C86.561928,156.015747 48.073517,156.003876 9.585110,155.988052 
	C3.022754,155.985352 3.013060,155.977554 3.012215,149.434265 
	C3.005830,99.956177 3.003557,50.478088 3.000000,1.000000 
M68.500244,9.570438 
	C49.576511,9.570438 30.652781,9.570438 11.776543,9.570438 
	C11.776543,55.926620 11.776543,101.459709 11.776543,147.018768 
	C154.894623,147.018768 297.577148,147.018768 440.223572,147.018768 
	C440.223572,101.073570 440.223572,55.540485 440.223572,9.570364 
	C316.359436,9.570364 192.929855,9.570364 68.500244,9.570438 
z"/>
<path fill="#401110" opacity="1.000000" stroke="none" 
	d="
M2.500000,1.000000 
	C3.003557,50.478088 3.005830,99.956177 3.012215,149.434265 
	C3.013060,155.977554 3.022754,155.985352 9.585110,155.988052 
	C48.073517,156.003876 86.561928,156.015747 125.380981,156.366241 
	C125.474426,157.469009 125.237213,158.234512 125.000000,159.000000 
	C83.739555,159.000000 42.479115,159.000000 1.000000,159.000000 
	C1.000000,139.108688 1.000000,119.216583 1.000000,99.324478 
	C1.000000,67.880028 0.987779,36.435555 1.042318,4.991198 
	C1.044626,3.660249 1.666667,2.330375 2.500000,1.000000 
z"/>
<path fill="#401110" opacity="1.000000" stroke="none" 
	d="
M149.987885,156.160339 
	C150.816376,156.105011 151.644867,156.001205 152.473358,156.001251 
	C224.001328,156.005325 295.529297,156.017441 367.355896,156.332245 
	C367.102997,157.423660 366.551514,158.211838 366.000000,159.000000 
	C294.645782,159.000000 223.291550,159.000000 151.344879,158.724152 
	C150.497574,157.685654 150.242722,156.923004 149.987885,156.160339 
z"/>
<path fill="#401211" opacity="1.000000" stroke="none" 
	d="
M386.007751,156.159698 
	C404.994690,156.102692 423.981873,156.081909 442.968140,155.936844 
	C445.037506,155.921036 447.101379,155.188782 449.583923,154.894409 
	C450.000000,156.324432 450.000000,157.648865 450.000000,159.000000 
	C429.645782,159.000000 409.291534,159.000000 388.318817,158.752762 
	C387.136139,157.723587 386.571930,156.941635 386.007751,156.159698 
z"/>
<path fill="#3D1818" opacity="1.000000" stroke="none" 
	d="
M149.524521,156.095428 
	C150.242722,156.923004 150.497574,157.685654 150.876221,158.724152 
	C142.645767,159.000000 134.291534,159.000000 125.468651,159.000000 
	C125.237213,158.234512 125.474426,157.469009 125.844070,156.432068 
	C133.671387,156.117249 141.366272,156.073883 149.524521,156.095428 
z"/>
<path fill="#3C1A19" opacity="1.000000" stroke="none" 
	d="
M385.543732,156.095184 
	C386.571930,156.941635 387.136139,157.723587 387.850159,158.752762 
	C380.979034,159.000000 373.958099,159.000000 366.468567,159.000000 
	C366.551514,158.211838 367.102997,157.423660 367.819489,156.397919 
	C373.682892,156.117111 379.381287,156.073883 385.543732,156.095184 
z"/>
<path fill="#FEFCFC" opacity="1.000000" stroke="none" 
	d="
M69.000252,9.570401 
	C192.929855,9.570364 316.359436,9.570364 440.223572,9.570364 
	C440.223572,55.540485 440.223572,101.073570 440.223572,147.018768 
	C297.577148,147.018768 154.894623,147.018768 11.776543,147.018768 
	C11.776543,101.459709 11.776543,55.926620 11.776543,9.570438 
	C30.652781,9.570438 49.576511,9.570438 69.000252,9.570401 
M30.505779,143.747223 
	C60.403400,143.747223 90.301018,143.747223 120.312576,143.747223 
	C120.312576,99.896790 120.312576,56.850117 120.312576,13.627048 
	C85.113564,13.627048 50.260109,13.627048 15.394908,13.627048 
	C15.394908,57.076633 15.394908,100.151405 15.394908,143.747208 
	C20.264780,143.747208 24.886829,143.747208 30.505779,143.747223 
M218.574173,55.650955 
	C217.345291,47.917191 218.674103,40.781651 225.110596,35.834835 
	C235.837173,27.590845 247.066605,29.834959 258.162231,35.625278 
	C259.096954,27.029593 259.032288,26.775940 255.531525,24.755571 
	C244.946976,18.646997 226.967010,20.076811 217.722488,27.762255 
	C208.259827,35.629047 204.810959,49.634308 209.173386,62.478767 
	C215.246536,80.360184 244.270142,88.512047 258.585846,76.304733 
	C259.331635,75.668808 259.929871,74.411613 259.942749,73.435020 
	C260.050049,65.302437 260.003632,57.167828 260.003632,48.757935 
	C253.163651,48.757935 246.734756,48.757935 240.159195,48.757935 
	C240.159195,51.504005 240.159195,54.020000 240.159195,56.976116 
	C243.360474,56.976116 246.121536,56.976116 249.378006,56.976116 
	C249.378006,60.709930 249.631836,64.028809 249.248062,67.272240 
	C249.102753,68.500275 247.696335,70.207474 246.509247,70.588455 
	C231.658905,75.354507 220.519104,66.863426 218.574173,55.650955 
M129.951447,28.626265 
	C129.951447,45.705341 129.951447,62.784420 129.951447,80.912270 
	C140.590134,80.088661 150.649658,80.204697 160.325592,78.335297 
	C172.537186,75.975983 179.321152,66.817596 179.990707,54.565258 
	C180.824631,39.305119 175.401855,29.533443 163.321243,24.787121 
	C152.579315,20.566748 141.414047,22.698389 129.951508,22.095629 
	C129.951508,24.403996 129.951508,26.034046 129.951447,28.626265 
M398.156372,108.325447 
	C395.806915,103.183350 393.448822,98.045181 391.110199,92.898170 
	C388.121277,86.319939 387.413116,85.992035 380.316833,87.950188 
	C380.316833,103.554169 380.316833,119.138786 380.316833,134.672546 
	C383.049896,134.672546 385.457245,134.672546 388.373230,134.672546 
	C388.373230,125.032448 388.373230,115.710655 388.373230,106.388863 
	C389.788727,107.582848 390.480042,108.872780 391.094086,110.198524 
	C394.378876,117.290955 397.561035,124.433006 400.986969,131.456253 
	C401.672089,132.860809 403.502289,134.933472 404.380371,134.743011 
	C405.869171,134.420074 407.477631,132.771362 408.232941,131.274734 
	C411.227936,125.340378 413.902740,119.244789 416.715363,113.217880 
	C417.837067,110.814278 419.008301,108.433823 420.157013,106.042831 
	C420.501282,106.161636 420.845581,106.280434 421.189850,106.399239 
	C421.189850,115.833633 421.189850,125.268028 421.189850,134.671570 
	C423.984253,134.671570 426.383148,134.671570 428.777771,134.671570 
	C428.777771,118.760094 428.777771,103.179489 428.777771,87.643456 
	C420.882172,86.592117 420.922119,86.610336 417.800629,93.454697 
	C413.529205,102.820442 409.189728,112.155136 404.589233,122.132484 
	C402.364899,117.338890 400.430359,113.169838 398.156372,108.325447 
M376.034393,64.405136 
	C371.044800,51.924206 365.945465,39.485306 361.138977,26.934265 
	C359.857910,23.589077 358.426178,21.876955 354.459595,22.006306 
	C350.753387,22.127165 348.540497,22.736652 347.053619,26.641918 
	C341.268677,41.836090 335.069000,56.872295 329.030273,71.969940 
	C328.008179,74.525307 327.019104,77.093857 325.814056,80.168350 
	C328.986725,80.168350 331.513275,80.450195 333.929138,80.055115 
	C335.230347,79.842331 337.242188,78.610184 337.399933,77.598732 
	C339.000977,67.336174 345.546539,65.322144 354.471405,66.813927 
	C355.765411,67.030205 357.169312,67.059937 358.449585,66.807220 
	C364.619720,65.589302 368.146057,68.023422 369.237305,74.201157 
	C370.108063,79.130478 373.017670,81.177299 378.007568,80.192551 
	C379.224426,79.952400 380.488892,79.953598 382.179779,79.804214 
	C380.104279,74.631691 378.198578,69.882286 376.034393,64.405136 
M279.916931,121.589844 
	C279.525452,118.732353 280.392181,117.472290 283.647980,117.416237 
	C287.522247,117.349525 290.343781,117.969307 291.799103,122.066910 
	C292.736053,124.704910 294.372192,127.094078 295.689911,129.597443 
	C298.991730,135.870117 299.435333,136.058319 307.002411,134.185822 
	C303.951263,128.313904 300.926788,122.493362 297.858765,116.588959 
	C299.474854,115.637688 300.659241,115.031944 301.746582,114.284927 
	C306.887024,110.753403 308.083160,105.520615 307.575165,99.788986 
	C307.050995,93.875000 303.801178,89.212219 298.024628,88.403297 
	C289.250458,87.174599 280.294800,87.241669 271.385559,86.756668 
	C271.385559,103.521904 271.385559,119.106735 271.385559,134.726913 
	C274.300690,134.726913 276.886627,134.726913 279.915771,134.726913 
	C279.915771,130.492538 279.915771,126.527946 279.916931,121.589844 
M168.045837,124.390068 
	C175.542648,109.727615 170.632080,92.881721 156.765305,89.191734 
	C148.326630,86.946190 139.194870,87.305298 130.206635,86.478981 
	C130.206635,103.431648 130.206635,118.995186 130.206635,135.393860 
	C137.908325,134.944641 145.356934,134.865051 152.706589,133.971512 
	C158.809036,133.229584 164.052292,130.302231 168.045837,124.390068 
M331.107788,105.495171 
	C331.281219,110.640938 330.947906,115.865707 331.735199,120.915771 
	C333.300171,130.954269 340.485535,136.052719 351.954651,136.002533 
	C362.995117,135.954224 370.786041,130.697983 371.600952,120.888351 
	C372.515869,109.875298 371.811310,98.727707 371.811310,87.483971 
	C368.969360,87.483971 366.426819,87.483971 363.371277,87.483971 
	C363.371277,89.608017 363.378174,91.403275 363.370087,93.198463 
	C363.333313,101.348190 363.500916,109.505905 363.187958,117.645103 
	C362.929474,124.367569 358.975983,127.887489 352.307831,128.086014 
	C344.461609,128.319611 340.114929,124.318443 340.014282,116.433693 
	C339.891754,106.837898 339.985168,97.239349 339.985168,87.603790 
	C336.703674,87.603790 334.025330,87.603790 331.107666,87.603790 
	C331.107666,93.536491 331.107666,99.017471 331.107788,105.495171 
M303.007751,58.499870 
	C303.007751,65.602509 303.007751,72.705147 303.007751,79.803040 
	C306.830017,79.803040 310.046539,79.803040 313.835632,79.803040 
	C313.835632,63.403061 313.835632,47.370644 313.835632,30.913216 
	C319.835205,30.913216 325.258667,30.913216 330.832642,30.913216 
	C330.832642,27.889605 330.832642,25.306942 330.832642,22.465250 
	C315.742554,22.465250 300.888000,22.465250 285.768616,22.465250 
	C285.768616,25.364759 285.768616,27.948895 285.768616,31.081434 
	C291.572784,31.081434 297.131897,31.081434 303.007874,31.081434 
	C303.007874,40.250969 303.007874,48.875458 303.007751,58.499870 
M209.900055,87.362717 
	C199.493179,87.362717 189.086319,87.362717 178.529907,87.362717 
	C178.529907,103.444283 178.529907,119.002747 178.529907,134.698242 
	C189.388489,134.698242 199.941040,134.698242 210.525269,134.698242 
	C210.525269,132.319199 210.525269,130.263519 210.525269,127.705284 
	C202.606537,127.705284 195.027786,127.705284 187.423996,127.705284 
	C187.423996,123.147774 187.423996,119.105309 187.423996,114.699097 
	C193.257614,114.699097 198.704529,114.699097 204.452774,114.699097 
	C204.452774,112.258278 204.452774,110.189865 204.452774,107.525314 
	C198.714294,107.525314 193.140350,107.525314 187.307251,107.525314 
	C187.307251,102.864799 187.307251,98.797874 187.307251,94.050842 
	C195.236908,94.050842 202.949753,94.050842 210.933899,94.050842 
	C210.791138,91.558380 210.687805,89.754120 209.900055,87.362717 
M390.760864,32.531216 
	C390.760864,48.283062 390.760864,64.034904 390.760864,79.879608 
	C403.858551,79.879608 416.263275,79.879608 428.766052,79.879608 
	C428.766052,77.027557 428.766052,74.472580 428.766052,71.380096 
	C419.534180,71.380096 410.613403,71.380096 401.130859,71.380096 
	C401.130859,54.783775 401.130859,38.721321 401.130859,22.433617 
	C397.483856,22.433617 394.414764,22.433617 390.760406,22.433617 
	C390.760406,25.640980 390.760406,28.593256 390.760864,32.531216 
M278.938538,55.499996 
	C278.938538,44.564682 278.938538,33.629372 278.938538,22.461777 
	C275.163879,22.461777 271.948608,22.461777 268.572021,22.461777 
	C268.572021,41.800999 268.572021,60.820168 268.572021,79.790535 
	C272.181213,79.790535 275.407257,79.790535 278.938538,79.790535 
	C278.938538,71.765289 278.938538,64.132629 278.938538,55.499996 
M216.963593,127.427521 
	C216.963593,129.853745 216.963593,132.279968 216.963593,134.723206 
	C227.861557,134.723206 238.098160,134.723206 248.476257,134.723206 
	C248.476257,132.377777 248.476257,130.326965 248.476257,127.629486 
	C240.797760,127.629486 233.425766,127.629486 225.633270,127.629486 
	C225.633270,113.895767 225.633270,100.808815 225.633270,87.445328 
	C222.620941,87.445328 220.062607,87.445328 216.963577,87.445328 
	C216.963577,100.586945 216.963577,113.516914 216.963593,127.427521 
M188.626114,52.499805 
	C188.626114,61.579277 188.626114,70.658752 188.626114,79.916679 
	C192.381714,79.916679 195.456802,79.916679 198.751373,79.916679 
	C198.751373,60.661221 198.751373,41.649044 198.751373,22.449558 
	C195.381454,22.449558 192.313705,22.449558 188.626389,22.449558 
	C188.626389,32.311256 188.626389,41.905525 188.626114,52.499805 
M254.096268,108.500168 
	C254.096268,117.261627 254.096268,126.023094 254.096268,134.701141 
	C257.422607,134.701141 260.010193,134.701141 262.681091,134.701141 
	C262.681091,118.818283 262.681091,103.245667 262.681091,87.597504 
	C259.702698,87.597504 257.020477,87.597504 254.095505,87.597504 
	C254.095505,94.527115 254.095505,101.013710 254.096268,108.500168 
M314.694977,96.544426 
	C314.694977,109.256767 314.694977,121.969109 314.694977,134.763000 
	C317.843811,134.763000 320.265350,134.763000 322.863403,134.763000 
	C322.863403,118.878662 322.863403,103.228424 322.863403,87.454971 
	C320.087372,87.454971 317.681671,87.454971 314.694916,87.454971 
	C314.694916,90.339287 314.694916,92.949440 314.694977,96.544426 
z"/>
<path fill="#FE4643" opacity="1.000000" stroke="none" 
	d="
M30.007328,143.747223 
	C24.886829,143.747208 20.264780,143.747208 15.394908,143.747208 
	C15.394908,100.151405 15.394908,57.076633 15.394908,13.627048 
	C50.260109,13.627048 85.113564,13.627048 120.312576,13.627048 
	C120.312576,56.850117 120.312576,99.896790 120.312576,143.747223 
	C90.301018,143.747223 60.403400,143.747223 30.007328,143.747223 
M96.956528,108.463562 
	C98.925934,105.995728 101.179527,103.702354 102.818825,101.031868 
	C113.820030,83.110435 110.329124,59.715008 94.839516,46.676628 
	C77.760506,32.300369 54.956093,32.342503 38.499134,47.049622 
	C26.280670,57.968922 22.038073,71.981453 25.436935,87.687546 
	C28.853392,103.474922 38.823479,114.275452 54.432465,118.993050 
	C70.217621,123.763901 84.276009,119.973068 96.956528,108.463562 
z"/>
<path fill="#FE4845" opacity="1.000000" stroke="none" 
	d="
M218.647186,56.054501 
	C220.519104,66.863426 231.658905,75.354507 246.509247,70.588455 
	C247.696335,70.207474 249.102753,68.500275 249.248062,67.272240 
	C249.631836,64.028809 249.378006,60.709930 249.378006,56.976116 
	C246.121536,56.976116 243.360474,56.976116 240.159195,56.976116 
	C240.159195,54.020000 240.159195,51.504005 240.159195,48.757935 
	C246.734756,48.757935 253.163651,48.757935 260.003632,48.757935 
	C260.003632,57.167828 260.050049,65.302437 259.942749,73.435020 
	C259.929871,74.411613 259.331635,75.668808 258.585846,76.304733 
	C244.270142,88.512047 215.246536,80.360184 209.173386,62.478767 
	C204.810959,49.634308 208.259827,35.629047 217.722488,27.762255 
	C226.967010,20.076811 244.946976,18.646997 255.531525,24.755571 
	C259.032288,26.775940 259.096954,27.029593 258.162231,35.625278 
	C247.066605,29.834959 235.837173,27.590845 225.110596,35.834835 
	C218.674103,40.781651 217.345291,47.917191 218.647186,56.054501 
z"/>
<path fill="#FE4542" opacity="1.000000" stroke="none" 
	d="
M129.951477,28.145180 
	C129.951508,26.034046 129.951508,24.403996 129.951508,22.095629 
	C141.414047,22.698389 152.579315,20.566748 163.321243,24.787121 
	C175.401855,29.533443 180.824631,39.305119 179.990707,54.565258 
	C179.321152,66.817596 172.537186,75.975983 160.325592,78.335297 
	C150.649658,80.204697 140.590134,80.088661 129.951447,80.912270 
	C129.951447,62.784420 129.951447,45.705341 129.951477,28.145180 
M140.421234,66.158066 
	C140.509323,67.769714 140.597427,69.381355 140.706894,71.383820 
	C150.444016,71.549736 160.126526,72.333443 166.212570,63.226089 
	C171.266754,55.662842 170.951935,47.154984 166.404068,39.584381 
	C160.562729,29.860592 150.523544,30.933245 140.422302,31.075497 
	C140.422302,42.670422 140.422302,53.948299 140.421234,66.158066 
z"/>
<path fill="#FE4542" opacity="1.000000" stroke="none" 
	d="
M398.326111,108.663116 
	C400.430359,113.169838 402.364899,117.338890 404.589233,122.132484 
	C409.189728,112.155136 413.529205,102.820442 417.800629,93.454697 
	C420.922119,86.610336 420.882172,86.592117 428.777771,87.643456 
	C428.777771,103.179489 428.777771,118.760094 428.777771,134.671570 
	C426.383148,134.671570 423.984253,134.671570 421.189850,134.671570 
	C421.189850,125.268028 421.189850,115.833633 421.189850,106.399239 
	C420.845581,106.280434 420.501282,106.161636 420.157013,106.042831 
	C419.008301,108.433823 417.837067,110.814278 416.715363,113.217880 
	C413.902740,119.244789 411.227936,125.340378 408.232941,131.274734 
	C407.477631,132.771362 405.869171,134.420074 404.380371,134.743011 
	C403.502289,134.933472 401.672089,132.860809 400.986969,131.456253 
	C397.561035,124.433006 394.378876,117.290955 391.094086,110.198524 
	C390.480042,108.872780 389.788727,107.582848 388.373230,106.388863 
	C388.373230,115.710655 388.373230,125.032448 388.373230,134.672546 
	C385.457245,134.672546 383.049896,134.672546 380.316833,134.672546 
	C380.316833,119.138786 380.316833,103.554169 380.316833,87.950188 
	C387.413116,85.992035 388.121277,86.319939 391.110199,92.898170 
	C393.448822,98.045181 395.806915,103.183350 398.326111,108.663116 
z"/>
<path fill="#FE4744" opacity="1.000000" stroke="none" 
	d="
M376.163635,64.769012 
	C378.198578,69.882286 380.104279,74.631691 382.179779,79.804214 
	C380.488892,79.953598 379.224426,79.952400 378.007568,80.192551 
	C373.017670,81.177299 370.108063,79.130478 369.237305,74.201157 
	C368.146057,68.023422 364.619720,65.589302 358.449585,66.807220 
	C357.169312,67.059937 355.765411,67.030205 354.471405,66.813927 
	C345.546539,65.322144 339.000977,67.336174 337.399933,77.598732 
	C337.242188,78.610184 335.230347,79.842331 333.929138,80.055115 
	C331.513275,80.450195 328.986725,80.168350 325.814056,80.168350 
	C327.019104,77.093857 328.008179,74.525307 329.030273,71.969940 
	C335.069000,56.872295 341.268677,41.836090 347.053619,26.641918 
	C348.540497,22.736652 350.753387,22.127165 354.459595,22.006306 
	C358.426178,21.876955 359.857910,23.589077 361.138977,26.934265 
	C365.945465,39.485306 371.044800,51.924206 376.163635,64.769012 
M361.207062,52.337662 
	C358.995270,46.552822 356.783478,40.767982 354.191956,33.989868 
	C353.218262,36.032707 352.676849,36.993046 352.288605,38.011742 
	C349.824829,44.476204 347.394928,50.953564 344.872406,57.642670 
	C351.164703,57.642670 356.972168,57.642670 363.175690,57.642670 
	C362.527069,55.821182 362.035583,54.440922 361.207062,52.337662 
z"/>
<path fill="#FE4946" opacity="1.000000" stroke="none" 
	d="
M279.916351,122.076599 
	C279.915771,126.527946 279.915771,130.492538 279.915771,134.726913 
	C276.886627,134.726913 274.300690,134.726913 271.385559,134.726913 
	C271.385559,119.106735 271.385559,103.521904 271.385559,86.756668 
	C280.294800,87.241669 289.250458,87.174599 298.024628,88.403297 
	C303.801178,89.212219 307.050995,93.875000 307.575165,99.788986 
	C308.083160,105.520615 306.887024,110.753403 301.746582,114.284927 
	C300.659241,115.031944 299.474854,115.637688 297.858765,116.588959 
	C300.926788,122.493362 303.951263,128.313904 307.002411,134.185822 
	C299.435333,136.058319 298.991730,135.870117 295.689911,129.597443 
	C294.372192,127.094078 292.736053,124.704910 291.799103,122.066910 
	C290.343781,117.969307 287.522247,117.349525 283.647980,117.416237 
	C280.392181,117.472290 279.525452,118.732353 279.916351,122.076599 
M296.829102,96.597130 
	C291.563812,93.075104 285.834045,94.408203 279.911133,94.241653 
	C279.911133,97.487251 279.911102,99.971962 279.911102,102.456673 
	C279.911102,104.891006 279.911133,107.325333 279.911133,110.068970 
	C283.815613,110.068970 287.116455,110.236115 290.394836,110.035454 
	C298.095398,109.564140 300.931580,104.217369 296.829102,96.597130 
z"/>
<path fill="#FE4845" opacity="1.000000" stroke="none" 
	d="
M167.859436,124.711319 
	C164.052292,130.302231 158.809036,133.229584 152.706589,133.971512 
	C145.356934,134.865051 137.908325,134.944641 130.206635,135.393860 
	C130.206635,118.995186 130.206635,103.431648 130.206635,86.478981 
	C139.194870,87.305298 148.326630,86.946190 156.765305,89.191734 
	C170.632080,92.881721 175.542648,109.727615 167.859436,124.711319 
M161.801163,105.115288 
	C157.862656,95.980736 150.589844,92.639214 139.067245,94.798775 
	C139.067245,105.634796 139.067245,116.508095 139.067245,127.332199 
	C156.224121,129.620056 164.347504,121.878693 161.801163,105.115288 
z"/>
<path fill="#FE4946" opacity="1.000000" stroke="none" 
	d="
M331.107727,104.996811 
	C331.107666,99.017471 331.107666,93.536491 331.107666,87.603790 
	C334.025330,87.603790 336.703674,87.603790 339.985168,87.603790 
	C339.985168,97.239349 339.891754,106.837898 340.014282,116.433693 
	C340.114929,124.318443 344.461609,128.319611 352.307831,128.086014 
	C358.975983,127.887489 362.929474,124.367569 363.187958,117.645103 
	C363.500916,109.505905 363.333313,101.348190 363.370087,93.198463 
	C363.378174,91.403275 363.371277,89.608017 363.371277,87.483971 
	C366.426819,87.483971 368.969360,87.483971 371.811310,87.483971 
	C371.811310,98.727707 372.515869,109.875298 371.600952,120.888351 
	C370.786041,130.697983 362.995117,135.954224 351.954651,136.002533 
	C340.485535,136.052719 333.300171,130.954269 331.735199,120.915771 
	C330.947906,115.865707 331.281219,110.640938 331.107727,104.996811 
z"/>
<path fill="#FE4946" opacity="1.000000" stroke="none" 
	d="
M303.007812,57.999908 
	C303.007874,48.875458 303.007874,40.250969 303.007874,31.081434 
	C297.131897,31.081434 291.572784,31.081434 285.768616,31.081434 
	C285.768616,27.948895 285.768616,25.364759 285.768616,22.465250 
	C300.888000,22.465250 315.742554,22.465250 330.832642,22.465250 
	C330.832642,25.306942 330.832642,27.889605 330.832642,30.913216 
	C325.258667,30.913216 319.835205,30.913216 313.835632,30.913216 
	C313.835632,47.370644 313.835632,63.403061 313.835632,79.803040 
	C310.046539,79.803040 306.830017,79.803040 303.007751,79.803040 
	C303.007751,72.705147 303.007751,65.602509 303.007812,57.999908 
z"/>
<path fill="#FE4B48" opacity="1.000000" stroke="none" 
	d="
M210.242249,87.656296 
	C210.687805,89.754120 210.791138,91.558380 210.933899,94.050842 
	C202.949753,94.050842 195.236908,94.050842 187.307251,94.050842 
	C187.307251,98.797874 187.307251,102.864799 187.307251,107.525314 
	C193.140350,107.525314 198.714294,107.525314 204.452774,107.525314 
	C204.452774,110.189865 204.452774,112.258278 204.452774,114.699097 
	C198.704529,114.699097 193.257614,114.699097 187.423996,114.699097 
	C187.423996,119.105309 187.423996,123.147774 187.423996,127.705284 
	C195.027786,127.705284 202.606537,127.705284 210.525269,127.705284 
	C210.525269,130.263519 210.525269,132.319199 210.525269,134.698242 
	C199.941040,134.698242 189.388489,134.698242 178.529907,134.698242 
	C178.529907,119.002747 178.529907,103.444283 178.529907,87.362717 
	C189.086319,87.362717 199.493179,87.362717 210.242249,87.656296 
z"/>
<path fill="#FE4643" opacity="1.000000" stroke="none" 
	d="
M390.760620,32.038376 
	C390.760406,28.593256 390.760406,25.640980 390.760406,22.433617 
	C394.414764,22.433617 397.483856,22.433617 401.130859,22.433617 
	C401.130859,38.721321 401.130859,54.783775 401.130859,71.380096 
	C410.613403,71.380096 419.534180,71.380096 428.766052,71.380096 
	C428.766052,74.472580 428.766052,77.027557 428.766052,79.879608 
	C416.263275,79.879608 403.858551,79.879608 390.760864,79.879608 
	C390.760864,64.034904 390.760864,48.283062 390.760620,32.038376 
z"/>
<path fill="#FE4A47" opacity="1.000000" stroke="none" 
	d="
M278.938538,55.999985 
	C278.938538,64.132629 278.938538,71.765289 278.938538,79.790535 
	C275.407257,79.790535 272.181213,79.790535 268.572021,79.790535 
	C268.572021,60.820168 268.572021,41.800999 268.572021,22.461777 
	C271.948608,22.461777 275.163879,22.461777 278.938538,22.461777 
	C278.938538,33.629372 278.938538,44.564682 278.938538,55.999985 
z"/>
<path fill="#FE4845" opacity="1.000000" stroke="none" 
	d="
M216.963593,126.937202 
	C216.963577,113.516914 216.963577,100.586945 216.963577,87.445328 
	C220.062607,87.445328 222.620941,87.445328 225.633270,87.445328 
	C225.633270,100.808815 225.633270,113.895767 225.633270,127.629486 
	C233.425766,127.629486 240.797760,127.629486 248.476257,127.629486 
	C248.476257,130.326965 248.476257,132.377777 248.476257,134.723206 
	C238.098160,134.723206 227.861557,134.723206 216.963593,134.723206 
	C216.963593,132.279968 216.963593,129.853745 216.963593,126.937202 
z"/>
<path fill="#FE4340" opacity="1.000000" stroke="none" 
	d="
M188.626251,51.999802 
	C188.626389,41.905525 188.626389,32.311256 188.626389,22.449558 
	C192.313705,22.449558 195.381454,22.449558 198.751373,22.449558 
	C198.751373,41.649044 198.751373,60.661221 198.751373,79.916679 
	C195.456802,79.916679 192.381714,79.916679 188.626114,79.916679 
	C188.626114,70.658752 188.626114,61.579277 188.626251,51.999802 
z"/>
<path fill="#FE4946" opacity="1.000000" stroke="none" 
	d="
M254.095886,108.000237 
	C254.095505,101.013710 254.095505,94.527115 254.095505,87.597504 
	C257.020477,87.597504 259.702698,87.597504 262.681091,87.597504 
	C262.681091,103.245667 262.681091,118.818283 262.681091,134.701141 
	C260.010193,134.701141 257.422607,134.701141 254.096268,134.701141 
	C254.096268,126.023094 254.096268,117.261627 254.095886,108.000237 
z"/>
<path fill="#FE4340" opacity="1.000000" stroke="none" 
	d="
M314.694946,96.052017 
	C314.694916,92.949440 314.694916,90.339287 314.694916,87.454971 
	C317.681671,87.454971 320.087372,87.454971 322.863403,87.454971 
	C322.863403,103.228424 322.863403,118.878662 322.863403,134.763000 
	C320.265350,134.763000 317.843811,134.763000 314.694977,134.763000 
	C314.694977,121.969109 314.694977,109.256767 314.694946,96.052017 
z"/>
<path fill="#FDEEEE" opacity="1.000000" stroke="none" 
	d="
M96.703651,108.710175 
	C84.276009,119.973068 70.217621,123.763901 54.432465,118.993050 
	C38.823479,114.275452 28.853392,103.474922 25.436935,87.687546 
	C22.038073,71.981453 26.280670,57.968922 38.499134,47.049622 
	C54.956093,32.342503 77.760506,32.300369 94.839516,46.676628 
	C110.329124,59.715008 113.820030,83.110435 102.818825,101.031868 
	C101.179527,103.702354 98.925934,105.995728 96.703651,108.710175 
M103.887131,92.132385 
	C107.778923,79.798706 106.912170,68.065208 99.349777,57.126156 
	C98.872833,63.700287 98.894539,70.257500 98.868019,76.814507 
	C98.822105,88.169868 94.764000,97.626816 85.355904,104.331749 
	C79.939072,108.192207 74.001778,110.610794 67.030006,109.068077 
	C68.061836,107.866783 69.305222,107.169106 70.617813,106.995857 
	C83.496605,105.295990 93.937141,95.383217 95.181358,82.505974 
	C96.010872,73.920769 95.299385,65.195267 95.909225,56.577251 
	C96.322906,50.731178 92.809242,48.602978 88.206375,45.874657 
	C88.206375,48.397167 88.215706,50.190651 88.204819,51.984009 
	C88.147202,61.475151 88.415794,70.982948 87.938858,80.453125 
	C87.355782,92.030777 76.931122,100.636002 64.958824,99.418121 
	C64.958824,86.636093 64.958824,73.775322 64.958824,60.889069 
	C54.863529,61.636189 48.524162,68.843102 48.262154,79.706818 
	C48.033329,89.194771 48.521515,98.707214 48.074310,108.179642 
	C47.851696,112.894913 49.960255,114.594574 53.868942,115.833389 
	C74.477440,122.365044 93.673676,113.566231 103.887131,92.132385 
M42.496971,63.151337 
	C41.009037,69.032570 38.915104,74.841263 38.199966,80.815010 
	C37.452950,87.055069 38.437771,93.487885 37.911602,99.773323 
	C37.446621,105.327820 40.041943,108.286255 45.120995,110.983353 
	C45.120995,107.840637 45.077370,105.250397 45.128834,102.662056 
	C45.314014,93.348473 44.855400,83.958038 45.912048,74.742485 
	C47.158512,63.871426 57.762749,56.252136 68.461639,57.923306 
	C68.461639,70.679230 68.461639,83.549461 68.461639,96.491600 
	C78.606049,94.997437 84.768959,88.484573 84.996819,79.001900 
	C85.248802,68.514458 84.946335,58.013618 85.204262,47.526459 
	C85.291092,43.995796 83.832016,42.569248 80.750336,41.506878 
	C54.411884,32.427036 27.989662,50.459206 27.461601,78.249512 
	C27.311451,86.151497 29.050539,93.832108 34.969257,101.139793 
	C34.969257,93.240128 34.957264,86.448624 34.972267,79.657181 
	C34.991402,70.995689 37.516407,63.256462 43.589317,56.903099 
	C49.919323,50.280769 57.486080,46.660683 67.273453,48.170589 
	C57.316147,50.093632 48.710354,54.067776 42.496971,63.151337 
z"/>
<path fill="#FEFAFA" opacity="1.000000" stroke="none" 
	d="
M140.421768,65.692123 
	C140.422302,53.948299 140.422302,42.670422 140.422302,31.075497 
	C150.523544,30.933245 160.562729,29.860592 166.404068,39.584381 
	C170.951935,47.154984 171.266754,55.662842 166.212570,63.226089 
	C160.126526,72.333443 150.444016,71.549736 140.706894,71.383820 
	C140.597427,69.381355 140.509323,67.769714 140.421768,65.692123 
z"/>
<path fill="#FEFBFB" opacity="1.000000" stroke="none" 
	d="
M361.375580,52.699162 
	C362.035583,54.440922 362.527069,55.821182 363.175690,57.642670 
	C356.972168,57.642670 351.164703,57.642670 344.872406,57.642670 
	C347.394928,50.953564 349.824829,44.476204 352.288605,38.011742 
	C352.676849,36.993046 353.218262,36.032707 354.191956,33.989868 
	C356.783478,40.767982 358.995270,46.552822 361.375580,52.699162 
z"/>
<path fill="#FEFBFB" opacity="1.000000" stroke="none" 
	d="
M297.068512,96.915314 
	C300.931580,104.217369 298.095398,109.564140 290.394836,110.035454 
	C287.116455,110.236115 283.815613,110.068970 279.911133,110.068970 
	C279.911133,107.325333 279.911102,104.891006 279.911102,102.456673 
	C279.911102,99.971962 279.911133,97.487251 279.911133,94.241653 
	C285.834045,94.408203 291.563812,93.075104 297.068512,96.915314 
z"/>
<path fill="#FEFCFC" opacity="1.000000" stroke="none" 
	d="
M161.891800,105.505356 
	C164.347504,121.878693 156.224121,129.620056 139.067245,127.332199 
	C139.067245,116.508095 139.067245,105.634796 139.067245,94.798775 
	C150.589844,92.639214 157.862656,95.980736 161.891800,105.505356 
z"/>
<path fill="#FE4744" opacity="1.000000" stroke="none" 
	d="
M103.773087,92.506577 
	C93.673676,113.566231 74.477440,122.365044 53.868942,115.833389 
	C49.960255,114.594574 47.851696,112.894913 48.074310,108.179642 
	C48.521515,98.707214 48.033329,89.194771 48.262154,79.706818 
	C48.524162,68.843102 54.863529,61.636189 64.958824,60.889069 
	C64.958824,73.775322 64.958824,86.636093 64.958824,99.418121 
	C76.931122,100.636002 87.355782,92.030777 87.938858,80.453125 
	C88.415794,70.982948 88.147202,61.475151 88.204819,51.984009 
	C88.215706,50.190651 88.206375,48.397167 88.206375,45.874657 
	C92.809242,48.602978 96.322906,50.731178 95.909225,56.577251 
	C95.299385,65.195267 96.010872,73.920769 95.181358,82.505974 
	C93.937141,95.383217 83.496605,105.295990 70.617813,106.995857 
	C69.305222,107.169106 68.061836,107.866783 67.030006,109.068077 
	C74.001778,110.610794 79.939072,108.192207 85.355904,104.331749 
	C94.764000,97.626816 98.822105,88.169868 98.868019,76.814507 
	C98.894539,70.257500 98.872833,63.700287 99.349777,57.126156 
	C106.912170,68.065208 107.778923,79.798706 103.773087,92.506577 
z"/>
<path fill="#FE4643" opacity="1.000000" stroke="none" 
	d="
M42.703117,62.848083 
	C48.710354,54.067776 57.316147,50.093632 67.273453,48.170589 
	C57.486080,46.660683 49.919323,50.280769 43.589317,56.903099 
	C37.516407,63.256462 34.991402,70.995689 34.972267,79.657181 
	C34.957264,86.448624 34.969257,93.240128 34.969257,101.139793 
	C29.050539,93.832108 27.311451,86.151497 27.461601,78.249512 
	C27.989662,50.459206 54.411884,32.427036 80.750336,41.506878 
	C83.832016,42.569248 85.291092,43.995796 85.204262,47.526459 
	C84.946335,58.013618 85.248802,68.514458 84.996819,79.001900 
	C84.768959,88.484573 78.606049,94.997437 68.461639,96.491600 
	C68.461639,83.549461 68.461639,70.679230 68.461639,57.923306 
	C57.762749,56.252136 47.158512,63.871426 45.912048,74.742485 
	C44.855400,83.958038 45.314014,93.348473 45.128834,102.662056 
	C45.077370,105.250397 45.120995,107.840637 45.120995,110.983353 
	C40.041943,108.286255 37.446621,105.327820 37.911602,99.773323 
	C38.437771,93.487885 37.452950,87.055069 38.199966,80.815010 
	C38.915104,74.841263 41.009037,69.032570 42.703117,62.848083 
z"/>
</svg>